<svg width="24" height="20" viewBox="0 0 24 20" fill="none" xmlns="http://www.w3.org/2000/svg">
<path d="M13.71 18.0373L22.18 3.89726C22.3546 3.59483 22.447 3.25196 22.448 2.90274C22.449 2.55352 22.3585 2.21013 22.1856 1.90673C22.0126 1.60333 21.7633 1.35051 21.4623 1.1734C21.1613 0.996302 20.8192 0.901093 20.47 0.897255L3.52999 0.897255C3.18079 0.901093 2.83868 0.996302 2.5377 1.1734C2.23672 1.35051 1.98736 1.60333 1.81442 1.90673C1.64149 2.21013 1.55101 2.55352 1.55198 2.90274C1.55296 3.25196 1.64536 3.59483 1.81999 3.89726L10.29 18.0373C10.4683 18.3311 10.7193 18.5741 11.0188 18.7428C11.3183 18.9114 11.6563 19 12 19C12.3437 19 12.6817 18.9114 12.9812 18.7428C13.2807 18.5741 13.5317 18.3311 13.71 18.0373Z" stroke="black" stroke-width="1.5" stroke-linecap="round" stroke-linejoin="round"/>
</svg>
